<?xml version="1.0" encoding="utf-8"?>
<!-- Generator: Adobe Illustrator 25.2.0, SVG Export Plug-In . SVG Version: 6.00 Build 0)  -->
<svg version="1.1" id="Layer_1" xmlns="http://www.w3.org/2000/svg" xmlns:xlink="http://www.w3.org/1999/xlink" x="0px" y="0px"
	 viewBox="0 0 300 300" style="enable-background:new 0 0 300 300;" xml:space="preserve">
<style type="text/css">
	.st0{stroke:#FFFFFF;stroke-width:10;stroke-miterlimit:10;}
</style>
<path class="st0" d="M286.3,140.1c-2.3-31.6-15.5-62.6-39.6-86.8S191.5,16,159.9,13.7c-3.3-0.2-6.7-0.4-10-0.4
	c-35,0-70,13.4-96.6,40c-26.6,26.6-40,61.6-40,96.6c0,3.3,0.2,6.7,0.4,10c2.3,31.6,15.4,62.6,39.6,86.8
	c24.1,24.1,55.1,37.3,86.8,39.6c3.3,0.2,6.7,0.4,10,0.4c35,0,70-13.4,96.6-40c26.6-26.6,40-61.6,40-96.6
	C286.7,146.8,286.5,143.4,286.3,140.1z M60.4,60.4c24.6-24.6,57-37,89.4-37.1c-0.3,5.7-1,11.4-2,17.1l-10.1-1.3
	c-2.7-0.4-5.3,1.6-5.6,4.3c-0.2,1.4,0.2,2.7,1,3.7c0.8,1,1.9,1.7,3.3,1.9l9.2,1.2c-1.8,6.8-4.1,13.5-7,20.1L128.2,66
	c-2.6-1.1-5.5,0.2-6.5,2.7c-0.8,1.9-0.3,4.1,1.1,5.4c0.5,0.5,1,0.8,1.6,1.1l9.8,4c-3.3,6.2-7.2,12.2-11.5,17.9l-7.7-6.1
	c-2.2-1.7-5.3-1.3-7,0.8c-1.7,2.2-1.3,5.3,0.8,7l7.6,5.9c-1.8,2-3.6,4-5.5,5.9c-1.9,1.9-4,3.8-6,5.6l-6.3-7.5
	c-1.8-2.1-4.9-2.4-7-0.6c-2.1,1.8-2.4,4.9-0.6,7l6.2,7.4c-5.7,4.3-11.6,8.1-17.8,11.4l-4-9.8c-1-2.6-4-3.8-6.5-2.7
	c-2.6,1.1-3.8,4-2.7,6.5l4.3,10.4c-7.1,3.1-14.3,5.6-21.7,7.4l-1.2-8.3c-0.4-2.7-3-4.6-5.7-4.2c-2.7,0.4-4.6,3-4.2,5.7l1.3,8.8
	c-5.1,0.9-10.3,1.5-15.4,1.7C23.4,117.4,35.7,85,60.4,60.4z M144.3,248.8l-11.3-1.5c-2.7-0.4-5.3,1.6-5.6,4.3
	c-0.4,2.7,1.6,5.3,4.3,5.6l10.5,1.4c-1,5.8-1.7,11.7-2,17.6c-29.1-2.2-57.6-14.4-79.9-36.7c-22.2-22.2-34.4-50.7-36.7-79.9
	c5.5-0.3,11-0.9,16.5-1.8l1.4,9.3c0.2,1.4,0.9,2.5,2,3.3c1,0.8,2.3,1.1,3.7,0.9c2.7-0.4,4.6-3,4.2-5.7L50,156c8.2-2,16.2-4.7,24-8.1
	l2.8,6.8c0.3,0.6,0.6,1.2,1.1,1.6c1.4,1.4,3.5,1.9,5.4,1.1c2.6-1.1,3.8-4,2.7-6.5l-3-7.3c7.1-3.7,13.9-8.1,20.4-13.1l6.9,8.2
	c1.8,2.1,4.9,2.4,7,0.6c2.1-1.8,2.4-4.9,0.6-7l-6.8-8.1c2.3-2,4.5-4,6.7-6.2c2.2-2.2,4.3-4.5,6.3-6.8l8.4,6.6c2.2,1.7,5.3,1.3,7-0.8
	c1.7-2.2,1.3-5.3-0.8-7l-8.3-6.5c4.9-6.5,9.3-13.2,13-20.3l7.3,3c2.6,1.1,5.5-0.2,6.5-2.7c1.1-2.6-0.2-5.5-2.7-6.5l-6.8-2.8
	c3.2-7.3,5.8-14.9,7.7-22.6l8.8,1.2c2.7,0.4,5.3-1.6,5.6-4.3c0.4-2.7-1.6-5.3-4.3-5.6l-8.1-1.1c1.1-6,1.8-12,2.1-18
	c29.1,2.2,57.6,14.4,79.9,36.7s34.4,50.7,36.7,79.9c-6.4,0.3-12.7,1.1-19,2.2l-1.5-9.7c-0.2-1.4-0.9-2.5-2-3.3
	c-1-0.8-2.4-1.1-3.7-0.9c-2.7,0.4-4.6,3-4.2,5.7l1.6,10.4c-8.1,2.1-16.1,4.9-23.8,8.4l-3.2-7.7c-0.3-0.6-0.6-1.2-1.1-1.6
	c-1.4-1.4-3.5-1.9-5.4-1.1c-2.6,1.1-3.8,4-2.7,6.5l3.4,8.4c-6.9,3.8-13.5,8.1-19.9,13.1l-7.8-9.4c-1.8-2.1-4.9-2.4-7-0.6
	c-2.1,1.8-2.4,4.9-0.6,7l7.8,9.4c-1.8,1.6-3.5,3.2-5.2,4.9c-2.6,2.6-5,5.2-7.3,8l-9.9-7.8c-2.2-1.7-5.3-1.3-7,0.8
	c-1.7,2.2-1.3,5.3,0.8,7l9.8,7.8c-4.7,6.4-8.9,13-12.5,19.9l-9.4-3.8c-2.6-1.1-5.5,0.2-6.5,2.7c-1.1,2.6,0.2,5.5,2.7,6.5l8.9,3.7
	C148.7,234,146.2,241.3,144.3,248.8z M239.6,239.6c-24.6,24.6-57,37-89.4,37.1c0.3-5.6,1-11.2,1.9-16.7l7.6,1
	c2.7,0.4,5.3-1.6,5.6-4.3c0.2-1.4-0.2-2.7-1-3.7c-0.8-1-1.9-1.7-3.3-1.9l-6.8-0.9c1.7-6.6,3.9-13.2,6.7-19.5l8.3,3.4
	c2.6,1.1,5.5-0.2,6.5-2.7c0.8-1.9,0.3-4.1-1.1-5.4c-0.5-0.5-1-0.8-1.6-1.1l-7.8-3.2c3.2-6.1,6.9-11.9,11-17.5l6.1,4.8
	c2.2,1.7,5.3,1.3,7-0.8s1.3-5.3-0.8-7l-6.1-4.8c2.1-2.4,4.2-4.8,6.5-7.1c1.5-1.5,3-2.9,4.5-4.3l5.2,6.2c1.8,2.1,4.9,2.4,7,0.6
	c2.1-1.8,2.4-4.9,0.6-7l-5.2-6.2c5.5-4.3,11.3-8.2,17.3-11.5l3.6,8.7c1,2.6,4,3.8,6.5,2.7c2.6-1.1,3.8-4,2.7-6.5l-3.9-9.5
	c7-3.2,14.1-5.8,21.4-7.7l1.2,7.7c0.4,2.7,3,4.6,5.7,4.2s4.6-3,4.2-5.7l-1.3-8.4c5.9-1.1,11.9-1.8,17.9-2.1
	C276.6,182.6,264.3,215,239.6,239.6z"/>
</svg>
