<?xml version="1.0" encoding="utf-8"?>
<!-- Generator: Adobe Illustrator 25.2.0, SVG Export Plug-In . SVG Version: 6.00 Build 0)  -->
<svg version="1.1" xmlns="http://www.w3.org/2000/svg" xmlns:xlink="http://www.w3.org/1999/xlink" x="0px" y="0px"
	 viewBox="0 0 300 300" style="enable-background:new 0 0 300 300;" xml:space="preserve">
<style type="text/css">
	.st0{fill:#FFFFFF;}
</style>
<g id="Layer_2">
</g>
<g id="Layer_1">
	<g>
		<path class="st0" d="M91.8,208.2c-19.2-19.2-27-45.9-23.1-71.1l28.8,9.6L76.2,60L7.5,117l30,9.9c-7.5,36.6,3,76.2,31.2,104.4
			c33.9,33.9,83.7,42,125.1,24.9l-7.8-32.1C155.4,239.1,117.3,233.7,91.8,208.2z"/>
		<path class="st0" d="M262.5,173.1c7.5-36.6-3-76.2-31.2-104.4c-33.9-33.9-83.7-42-125.1-24.9l7.8,32.1c30.6-15,68.7-9.6,94.2,15.9
			c19.2,19.2,27,45.9,23.1,71.1l-28.8-9.6l21.3,86.7l68.7-57L262.5,173.1z"/>
	</g>
</g>
</svg>
